<svg height="512" viewBox="0 0 58 48" width="512" xmlns="http://www.w3.org/2000/svg"><g id="Page-1" fill="none" fill-rule="evenodd"><g id="013---CO2" fill-rule="nonzero" transform="translate(-1)"><path id="Shape" d="m59 30c.0004997 4.4398925-2.2649482 8.573004-6.0079598 10.9609968-3.7430117 2.3879928-8.4458989 2.7005887-12.4720402.8290032-1.889456 3.4250691-5.3281992 5.7157191-9.2168314 6.1396079-3.8886322.4238887-7.740143-1.0720713-10.3231686-4.0096079-.4449736-.5016327-.8464238-1.0402451-1.2-1.61-.01 0-.01.01-.02.01-4.5094877 2.6129263-10.16692726 2.153711-14.19597472-1.1522896-4.02904745-3.3060006-5.58404654-8.7648905-3.90189371-13.6977624 1.68215284-4.9328719 6.24839075-8.304366 11.45786843-8.459948h.01s-.13-1.33-.13-2.01c0-9.38884075 7.6111593-17 17-17s17 7.61115925 17 17v.04c6.7711442.5224051 11.9992261 6.1687336 12 12.96z" fill="#95a5a5"/><path id="Shape" d="m23.17 42.28c-.6723562.6196869-1.4061517 1.1691959-2.19 1.64-.4449736-.5016327-.8464238-1.0402451-1.2-1.61.7259261-.4296502 1.4061156-.9322533 2.03-1.5.4036568-.3742413 1.0338657-.3518935 1.41.05.3759323.4068165.3536148 1.0406323-.05 1.42z" fill="#7f8c8d"/><path id="Shape" d="m20.539 36c-4.2870459-.1360355-7.6573501-3.7124294-7.539-8-.1183501-4.2875706 3.2519541-7.8639645 7.539-8 1.3682395.0040245 2.7071941.3965903 3.861 1.132.2429969.1592352.404732.4162755.4431286.7042495.0383965.2879741-.0503417.5784108-.2431286.7957505l-1.33 1.527c-.3137449.3540949-.8313846.4426549-1.245.213-.4570721-.244659-.9675671-.3724545-1.486-.372-2.0772895.1365993-3.6565191 1.9215438-3.539 4-.1175191 2.0784562 1.4617105 3.8634007 3.539 4 .5184329.0004545 1.0289279-.127341 1.486-.372.4136154-.2296549.9312551-.1410949 1.245.213l1.33 1.531c.1927869.2173397.2815251.5077764.2431286.7957505-.0383966.287974-.2001317.5450143-.4431286.7042495-1.1542309.7340014-2.4931553 1.1251712-3.861 1.128z" fill="#f0c419"/><path id="Shape" d="m34 36c-3.86 0-7-3.589-7-8s3.14-8 7-8 7 3.589 7 8-3.14 8-7 8zm0-12c-1.626 0-3 1.832-3 4s1.374 4 3 4 3-1.832 3-4-1.374-4-3-4z" fill="#f0c419"/><path id="Shape" d="m48 39h-4c-.3977652.0003135-.757896-.2351435-.9171457-.5996387s-.0873348-.7887151.1831457-1.0803613l2.73-2.946c.094-.1.194-.2.3-.306.298991-.2460232.5331507-.561555.682-.919.0763872-.2448571.0261735-.5116642-.134-.712-.2055574-.2632459-.516299-.4230036-.85-.437-.53627-.0140206-.9831268.4078122-1 .944 0 .5522847-.4477153 1-1 1s-1-.4477153-1-1c.0175865-1.6404867 1.3594731-2.9573248 3-2.944.9513824.0163671 1.8435504.4650275 2.424 1.219.5405074.6927054.7187624 1.6014342.48 2.447-.2257377.7000322-.6378072 1.3253959-1.192 1.809-.085.087-.17.172-.25.258l-1.174 1.267h1.718c.5522847 0 1 .4477153 1 1s-.4477153 1-1 1z" fill="#f3d55b"/></g></g></svg>