<svg id="Capa_1" enable-background="new 0 0 512 512" height="512" viewBox="0 0 512 512" width="512" xmlns="http://www.w3.org/2000/svg"><g><g><path d="m204.179 32.39c-112.585 0-204.179 91.605-204.179 204.202s91.594 204.203 204.179 204.203c39.113 0 77.123-11.096 109.921-32.089 4.652-2.977 6.009-9.162 3.032-13.813-2.978-4.65-9.161-6.01-13.813-3.031-29.573 18.929-63.855 28.934-99.14 28.934-12.341 0-24.402-1.221-36.07-3.547 26.506-17.77 45.068-38.508 55.311-61.843 19.019-43.321 39.232-60.847 65.549-56.821 5.464.832 10.563-2.914 11.396-8.374.835-5.459-2.914-10.562-8.373-11.397-53.228-8.138-78.559 49.584-86.886 68.553-10.619 24.194-31.342 44.679-63.301 62.556-19.008-6.863-36.574-16.769-52.106-29.129 4.174-2.601 8.586-5.105 12.919-7.565 19.712-11.189 40.095-22.758 39.82-44.316-.135-10.631-7.555-19.69-16.147-30.18-8.169-9.973-17.427-21.277-21.29-35.097-3.778-13.517-5.805-29.118-6.021-46.371-.431-34.257-18.625-65.215-48.053-82.741 18.743-28.057 44.978-50.703 75.821-65.053-.473 2.832-1.021 5.826-1.526 8.579-3.468 18.93-8.218 44.854-3.292 69.006 6.168 30.242 25.793 49.852 58.332 58.286 13.491 3.496 24.492-3.325 34.197-9.34 8.901-5.516 17.309-10.729 27.762-9.16 11.757 1.765 17.654 8.651 27.908 21.69 3.911 4.974 8.344 10.611 13.702 16.251 15.615 16.415 37.078 21.567 57.878 21.566 17.237-.001 34.018-3.541 46.629-7.144-.308 22.324-4.565 44.079-12.665 64.703-2.02 5.141.511 10.944 5.651 12.963 5.145 2.022 10.946-.511 12.964-5.652 9.335-23.767 14.068-48.875 14.068-74.628.001-112.596-91.592-204.201-204.177-204.201zm-125.197 185.127c.238 18.988 2.512 36.316 6.758 51.504 4.993 17.861 16.13 31.459 25.079 42.385 5.426 6.624 11.575 14.132 11.621 17.762.124 9.743-14.36 17.964-29.694 26.668-6.211 3.525-12.572 7.136-18.53 11.156-33.473-33.371-54.216-79.508-54.216-130.4 0-30.583 7.491-59.448 20.734-84.858 23.43 13.991 37.906 38.593 38.248 65.783zm219.345-6.513c-4.71-4.958-8.657-9.979-12.475-14.834-10.547-13.413-20.51-26.082-40.664-29.107-17.719-2.657-30.771 5.437-41.263 11.938-8.333 5.164-13.693 8.265-18.648 6.98-25.208-6.534-39.11-20.173-43.75-42.922-4.152-20.358.194-44.083 3.367-61.406 1.544-8.423 2.761-15.068 2.996-20.466 17.75-5.711 36.666-8.797 56.289-8.797 95.485 0 174.231 73.048 183.306 166.202-22.611 7.105-66.282 16.459-89.158-7.588z" fill="#020288"/></g><g><path d="m334.096 263.308c32.389 0 46.92 18.111 52.638 28.749.718 1.336 2.667 1.334 3.383-.003 5.698-10.639 20.15-28.746 52.536-28.746 36.893 0 69.347 25.125 69.347 71.006 0 18.566-3.793 34.471-14.318 52.221-21.45 36.173-92.113 83.066-106.628 92.306-1.605 1.022-3.637 1.024-5.244.007-14.527-9.196-85.203-55.857-106.821-92.313-10.526-17.75-14.292-33.655-14.292-52.221 0-45.88 32.506-71.006 69.399-71.006z" fill="#ffbdbc"/></g></g></svg>