<svg height="512" viewBox="0 0 60 60" width="512" xmlns="http://www.w3.org/2000/svg"><g id="Page-1" fill="none" fill-rule="evenodd"><g id="003---Atmosphere" fill-rule="nonzero"><path id="Shape" d="m54 30c-.0130138 11.9730195-8.8485035 22.1050219-20.7083886 23.7471211-11.8598852 1.6420992-23.1159254-5.7080647-26.3816114-17.2271211-.60913952-2.1195758-.91550553-4.3146378-.91-6.52.00331212-13.2534618 10.7465382-23.99668788 24-24 13.2534618.00331212 23.9966879 10.7465382 24 24z" fill="#2980ba"/><path id="Shape" d="m47 24c-.0000262 9.6239471-6.255433 18.1308244-15.4418276 20.9997109-9.1863947 2.8688866-19.1712454-.5662017-24.6481724-8.4797109-.60913952-2.1195758-.91550553-4.3146378-.91-6.52.00331212-13.2534618 10.7465382-23.99668788 24-24 3.6693115-.00798469 7.2906088.83401828 10.58 2.46 4.1200246 4.121058 6.4300783 9.7126832 6.42 15.54z" fill="#3b97d3"/><g fill="#ff5364"><circle id="Oval" cx="30" cy="1" r="1"/><circle id="Oval" cx="30" cy="59" r="1"/><circle id="Oval" cx="24.964" cy="1.441" r="1"/><circle id="Oval" cx="35.036" cy="58.559" r="1"/><circle id="Oval" cx="20.081" cy="2.749" r="1"/><circle id="Oval" cx="39.919" cy="57.251" r="1"/><circle id="Oval" cx="15.5" cy="4.885" r="1"/><circle id="Oval" cx="44.5" cy="55.115" r="1"/><circle id="Oval" cx="11.359" cy="7.785" r="1"/><circle id="Oval" cx="48.641" cy="52.215" r="1"/><circle id="Oval" cx="7.785" cy="11.359" r="1"/><circle id="Oval" cx="52.215" cy="48.641" r="1"/><circle id="Oval" cx="4.885" cy="15.5" r="1"/><circle id="Oval" cx="55.115" cy="44.5" r="1"/><circle id="Oval" cx="2.749" cy="20.081" r="1"/><circle id="Oval" cx="57.251" cy="39.919" r="1"/><circle id="Oval" cx="1.441" cy="24.964" r="1"/><circle id="Oval" cx="58.559" cy="35.036" r="1"/><circle id="Oval" cx="1" cy="30" r="1"/><circle id="Oval" cx="59" cy="30" r="1"/></g><path id="Shape" d="m35 30c.0013291 1.0612728-.4196715 2.0794609-1.1701053 2.8298947s-1.7686219 1.1714344-2.8298947 1.1701053h-14c-2.209139 0-4 1.790861-4 4s1.790861 4 4 4h10c2.209139 0 4 1.790861 4 4s-1.790861 4-4 4h-10.25c-6.7124057-4.4403515-10.74971656-11.9518255-10.74971656-20s4.03731086-15.5596485 10.74971656-20h7.25c2.209139 0 4 1.790861 4 4s-1.790861 4-4 4h-8c-2.209139 0-4 1.790861-4 4s1.790861 4 4 4h15c2.209139 0 4 1.790861 4 4z" fill="#4fba6f"/><path id="Shape" d="m54 30c.005748 3.0860578-.5921416 6.1434475-1.76 9h-10.24c-2.209139 0-4-1.790861-4-4s1.790861-4 4-4h3c2.209139 0 4-1.790861 4-4s-1.790861-4-4-4h-7c-2.209139 0-4-1.790861-4-4s1.790861-4 4-4h10.73c3.4141315 4.2536643 5.2733822 9.5456493 5.27 15z" fill="#4fba6f"/><path id="Shape" d="m31 46c.0013291 1.0612728-.4196715 2.0794609-1.1701053 2.8298947s-1.7686219 1.1714344-2.8298947 1.1701053h-10.25c-4.7657704-3.1639301-8.24200192-7.9288503-9.8-13.433 5.3439976 7.6782939 14.9592994 11.1373155 23.97 8.623.0523498.2668438.0791377.5380711.08.81z" fill="#24ae5f"/><path id="Shape" d="m54 30c.005748 3.0860578-.5921416 6.1434475-1.76 9h-10.24c-.2758426.0008274-.5509036-.0293622-.82-.09 2.1274061-2.3004812 3.7338954-5.0325362 4.71-8.01 1.4203684-.3230921 2.5528126-1.3927717 2.9562807-2.7924317.4034682-1.3996601.0141678-2.9080001-1.0162807-3.9375683-.2509129-.2490283-.5333058-.4641848-.84-.64-.0556977-2.9429497-.705359-5.8443166-1.91-8.53h3.65c3.4141315 4.2536643 5.2733822 9.5456493 5.27 15z" fill="#24ae5f"/></g></g></svg>