<svg id="Capa_1" enable-background="new 0 0 512 512" height="512" viewBox="0 0 512 512" width="512" xmlns="http://www.w3.org/2000/svg"><g><path d="m429.268 288.053c-.829-3.847-3.837-6.85-7.686-7.672-3.923-.838-96.601-19.99-143.857 27.07-9.896 9.854-16.878 21.691-21.725 34.284-4.847-12.593-11.828-24.43-21.725-34.284-47.259-47.06-139.938-27.909-143.857-27.07-3.849.823-6.857 3.826-7.686 7.672-.843 3.908-20.087 96.25 27.199 143.337 25.752 25.644 64.984 31.626 96 31.626 17.035 0 31.591-1.806 40.068-3.151v42.135c0 5.523 4.478 10 10 10 5.523 0 10-4.477 10-10v-42.134c8.476 1.345 23.031 3.151 40.068 3.151 31.014 0 70.251-5.985 96.001-31.626 47.286-47.088 28.042-139.431 27.2-143.338zm-305.224 129.165c-33.089-32.949-26.153-97.709-22.912-118.422 20.794-3.23 85.907-10.159 119.032 22.827 20.225 20.139 25.496 52.163 25.798 78.749-.02 1.769-.021 3.513-.003 5.229-.1 8.172-.632 15.681-1.279 21.978l-45.158-44.967-.003-36.721c0-5.523-4.477-10-10.001-9.999-5.522 0-9.999 4.478-9.999 10l.001 16.803-23.532-23.433c-3.914-3.897-10.245-3.884-14.142.03-3.898 3.914-3.884 10.245.03 14.142l23.43 23.331-16.831-.001c-.001 0-.001 0-.001 0-5.523 0-10 4.477-10 9.999 0 5.523 4.477 10 9.999 10.001l36.919.002 45.078 44.888c-27.637 2.809-78.445 3.428-106.426-24.436zm263.913 0c-27.984 27.866-78.795 27.247-106.428 24.436l45.079-44.888 36.919-.002c5.522-.001 9.999-4.478 9.999-10.001s-4.478-10-10.001-9.999l-16.831.001 23.43-23.331c3.914-3.897 3.928-10.229.03-14.142-3.897-3.913-10.228-3.926-14.142-.03l-23.532 23.433.001-16.803c0-5.522-4.477-10-9.999-10-.001 0-.001 0-.001 0-5.523 0-10 4.477-10 9.999l-.003 36.721-45.178 44.987c-.619-5.967-1.135-13.025-1.276-20.706.04-2.567.041-5.2-.006-7.885.457-26.288 5.894-57.545 25.818-77.385 33.134-32.992 98.268-26.053 119.041-22.825 3.265 20.698 10.254 85.385-22.92 118.42z" fill="#020288"/><g><path d="m275.304 110.221 8.205-110.221-106.749 155.372h72.539l-15.019 110.506 100.96-157.865z" fill="#fff59b"/></g></g></svg>