<svg height="512" viewBox="0 0 54 58" width="512" xmlns="http://www.w3.org/2000/svg"><g id="Page-1" fill="none" fill-rule="evenodd"><g id="018---Embrace-Eco" fill-rule="nonzero"><path id="Shape" d="m22 41.56.0000093 7.44h-13.0000093v-3.45c-.00162349-.3632579-.10185636-.7192574-.29-1.03l-8-13.33c-.46153884-.7780557-.70666897-1.6653577-.71-2.57v-9.12c0-1.3807119 1.11928813-2.5 2.5-2.5s2.5 1.1192881 2.5 2.5v8.43c.00111966.6927405.241311 1.3638633.68 1.9l1.2 1.47.02-.02 1.55-1.24.36-.29c1.2355622-.9848057 3.0226366-.8449857 4.09.32l8.05 8.78c.677398.7397345 1.0521569 1.7069693 1.05 2.71z" fill="#fdd7ad"/><path id="Shape" d="m54 19.5v9.12c-.003331.9046423-.2484612 1.7919443-.71 2.57l-8 13.33c-.1881436.3107426-.2883765.6667421-.29 1.03v3.45h-13.0000093l.0000093-7.44c-.0021569-1.0030307.372602-1.9702655 1.05-2.71l8.05-8.78c1.0673634-1.1649857 2.8544378-1.3048057 4.09-.32l.36.29 1.55 1.24.02.02 1.2-1.47c.438689-.5361367.6788803-1.2072595.68-1.9v-8.43c0-1.3807119 1.1192881-2.5 2.5-2.5s2.5 1.1192881 2.5 2.5z" fill="#fdd7ad"/><rect id="Rectangle-path" fill="#3b97d3" height="10" rx="2" width="17" x="7" y="48"/><path id="Shape" d="m15.13 39.77c-.1748167.1511135-.3989426.2329372-.63.23-.3005627.0045822-.5857774-.1324691-.77-.37l-6.83-8.35 1.55-1.24 6.82 8.33c.1686122.2035893.248704.4662062.2224006.7292401-.0263033.2630339-.1568125.5045906-.3624006.6707599z" fill="#f9c795"/><circle id="Oval" cx="18" cy="53" fill="#ecf0f1" r="2"/><rect id="Rectangle-path" fill="#3b97d3" height="10" rx="2" transform="matrix(-1 0 0 -1 77 106)" width="17" x="30" y="48"/><path id="Shape" d="m47.1 31.28-6.83 8.35c-.1871393.2338926-.4704556.3700316-.77.37-.2310574.0029372-.4551833-.0788865-.63-.23-.2055881-.1661693-.3360973-.407726-.3624006-.6707599-.0263034-.2630339.0537884-.5256508.2224006-.7292401l6.82-8.33z" fill="#f9c795"/><circle id="Oval" cx="36" cy="53" fill="#ecf0f1" r="2"/><path id="Shape" d="m27 42c-.5522847 0-1-.4477153-1-1v-8.5c0-.5522847.4477153-1 1-1s1 .4477153 1 1v8.5c0 .5522847-.4477153 1-1 1z" fill="#24ae5f"/><path id="Shape" d="m26.646 32.871c.2276078.089007.4803922.089007.708 0 1.984-.756 11.646-4.898 11.646-13.871 0-7.955-7.594-15.855-10.7-18.517-.7470341-.64399249-1.8529659-.64399249-2.6 0-3.106 2.662-10.7 10.562-10.7 18.517 0 8.973 9.662 13.115 11.646 13.871z" fill="#4fba6f"/><path id="Shape" d="m33.447 17.9c.3197527-.1596977.5300187-.4778505.5515928-.8346134.0215741-.3567628-.1488214-.6979349-.447-.895-.2981787-.1970651-.6788401-.2200843-.9985928-.0603866l-4.553 2.272v-2.764l5.447-2.718c.4942949-.2468713.6948713-.8477051.448-1.342s-.8477051-.6948713-1.342-.448l-4.553 2.272v-5.382c0-.55228475-.4477153-1-1-1s-1 .44771525-1 1v5.382l-4.553-2.277c-.3197527-.1596977-.7004141-.1366785-.9985927.0603866-.2981787.1970651-.4685741.5382372-.4470001.895.0215741.3567629.2318401.6749157.5515928.8346134l5.447 2.723v2.764l-4.553-2.277c-.3197527-.1596977-.7004141-.1366785-.9985927.0603866-.2981787.1970651-.4685741.5382372-.4470001.895.0215741.3567629.2318401.6749157.5515928.8346134l5.447 2.723v2.764l-4.553-2.277c-.3197527-.1596977-.7004141-.1366785-.9985927.0603866-.2981787.1970651-.4685741.5382372-.4470001.895.0215741.3567629.2318401.6749157.5515928.8346134l5.447 2.723v1.382c0 .5522847.4477153 1 1 1s1-.4477153 1-1v-1.382l5.447-2.718c.3197527-.1596977.5300187-.4778505.5515928-.8346134.0215741-.3567628-.1488214-.6979349-.447-.895-.2981787-.1970651-.6788401-.2200843-.9985928-.0603866l-4.553 2.272v-2.764z" fill="#24ae5f"/></g></g></svg>