<svg height="512" viewBox="0 0 58 58" width="512" xmlns="http://www.w3.org/2000/svg"><g id="Page-1" fill="none" fill-rule="evenodd"><g id="009---Love-World" fill-rule="nonzero"><path id="Shape" d="m48 24c.0028316 1.4389785-.1277269 2.8751219-.39 4.29l-19.07 19.27c-1.4954435.2938224-3.0159654.4411857-4.54.44-10.2475201.0018314-19.36417052-6.5071918-22.69-16.2-.86987953-2.5084237-1.31269396-5.1450287-1.31-7.8-.00588238-8.8226801 4.83258064-16.93625439 12.5976094-21.1248158 7.7650289-4.18856142 17.2027403-3.77574845 24.5723906 1.0748158 2.1103879 1.37656717 3.9873634 3.081374 5.56 5.05 3.4141315 4.2536643 5.2733822 9.5456493 5.27 15z" fill="#2980ba"/><path id="Shape" d="m40 15c.0050086 9.1602425-5.4291334 17.4491302-13.8314442 21.0975877s-18.16881959 1.9600075-24.8585558-4.2975877c-.86987953-2.5084237-1.31269396-5.1450287-1.31-7.8-.00588238-8.8226801 4.83258064-16.93625439 12.5976094-21.1248158 7.7650289-4.18856142 17.2027403-3.77574845 24.5723906 1.0748158 1.8607924 3.38546295 2.8343616 7.1868551 2.83 11.05z" fill="#3b97d3"/><path id="Shape" d="m48 24c.0028316 1.4389785-.1277269 2.8751219-.39 4.29l-7.65 7.73c-8.72-2.93-8.98-7.62-6.79-9.85.7523311-.7476392 1.7693573-1.1681058 2.83-1.17h3c2.209139 0 4-1.790861 4-4s-1.790861-4-4-4h-7c-2.209139 0-4-1.790861-4-4s1.790861-4 4-4h10.73c3.4141315 4.2536643 5.2733822 9.5456493 5.27 15z" fill="#4fba6f"/><path id="Shape" d="m26 24c.0013291 1.0612728-.4196715 2.0794609-1.1701053 2.8298947s-1.7686219 1.1714344-2.8298947 1.1701053h-11c-1.42906239 0-2.74957051.7623956-3.46410171 2-.71453121 1.2376043-.71453121 2.7623957 0 4 .7145312 1.2376044 2.03503932 2 3.46410171 2h7c2.209139 0 4 1.790861 4 4s-1.790861 4-4 4h-7.25c-6.71240574-4.4403515-10.74971656-11.9518255-10.74971656-20s4.03731082-15.55964847 10.74971656-20h7.25c2.209139 0 4 1.790861 4 4s-1.790861 4-4 4h-8c-2.209139 0-4 1.790861-4 4s1.790861 4 4 4h12c2.209139 0 4 1.790861 4 4z" fill="#4fba6f"/><path id="Shape" d="m48 24c.0028316 1.4389785-.1277269 2.8751219-.39 4.29l-7.65 7.73c-3.76-1.26-5.94-2.85-7.04-4.43 1.9814295-1.8894659 3.6042846-4.1221622 4.79-6.59h1.29c2.038646.0106749 3.75813-1.5157525 3.98918-3.5412913.2310501-2.0255387-1.1005007-3.8999929-3.08918-4.3487087.0687084-.7012104.102084-1.4054345.1-2.11.0011852-2.0266667-.2678518-4.0444445-.8-6h3.53c3.4141315 4.2536643 5.2733822 9.5456493 5.27 15z" fill="#24ae5f"/><path id="Shape" d="m22 40c.0013291 1.0612728-.4196715 2.0794609-1.1701053 2.8298947s-1.7686219 1.1714344-2.8298947 1.1701053h-7.25c-4.39289277-2.9097519-7.70107742-7.1896498-9.41-12.174 4.24595401 3.9729458 9.8451584 6.1804483 15.66 6.174 1.4091507.0023975 2.8153837-.1281813 4.2-.39.5176261.6894441.798271 1.5278707.8 2.39z" fill="#24ae5f"/><path id="Shape" d="m58 38.45c-.0094681 1.4239067-.1941907 2.8412326-.55 4.22-1.39 5.41-5.61 12.01-15.45 15.33-9.84-3.32-14.06-9.92-15.45-15.33-.3558093-1.3787674-.5405319-2.7960933-.55-4.22 0-5.59 3.26-10.45 8-10.45 3.0832427.0353505 6.0004424 1.4027879 8 3.75 1.9995576-2.3472121 4.9167573-3.7146495 8-3.75 4.74 0 8 4.86 8 10.45z" fill="#df4d60"/><path id="Shape" d="m58 38.45c-.0094681 1.4239067-.1941907 2.8412326-.55 4.22-3.14 3.79-8.89 6.33-15.45 6.33s-12.31-2.54-15.45-6.33c-.3558093-1.3787674-.5405319-2.7960933-.55-4.22 0-5.59 3.26-10.45 8-10.45 3.0832427.0353505 6.0004424 1.4027879 8 3.75 1.9995576-2.3472121 4.9167573-3.7146495 8-3.75 4.74 0 8 4.86 8 10.45z" fill="#ff5364"/></g></g></svg>