<svg id="Capa_1" enable-background="new 0 0 512.012 512.012" height="512" viewBox="0 0 512.012 512.012" width="512" xmlns="http://www.w3.org/2000/svg"><g><g><path d="m356.576 23.143c-17.875-2.573-37.095-1.968-55.557-1.183-11.556.488-18.615 4.378-29.377 7.168 3.737 12.729-29.485 80.402 31.056 96.092 13.776 3.566 23.897-15.979 42.819-13.145 15.88 2.383 20.746 15.564 33.285 28.763 20.511 21.558 60.378 10.553 75.165 5.426l-16.045-48.162c-8.284-24.866-25.834-45.583-49-57.842z" fill="#a4fcc4"/><g><path d="m201.422 85.594c-.147-.071-.294-.143-.441-.215-14.306 23.39-21.591 51.362-19.133 80.778 2.962 35.452 19.527 66.483 44.103 88.464 15.783-12.503 41.589-19.559 41.384-35.691-.136-10.728-20.209-23.18-26.046-44.06-3.23-11.553-4.355-23.682-4.49-34.383-.298-23.543-14.169-44.666-35.377-54.893z" fill="#a4fcc4"/></g><g><path d="m278.136 280.285c14.159 5.105 29.57 10.051 45.343 7.902 87.507-11.926 111.45-63.7 111.45-63.7s-25.103-19.51-33.891-24.913c-44.505-27.359-65.636 10.977-76.208 35.055-11.001 25.057-31.72 37.506-46.694 45.656z" fill="#a4fcc4"/></g></g><g fill="#020288"><path d="m502.153 348.711c-12.574-15.346-33.728-19.988-51.438-11.286l-95.321 46.817v-5.085c0-27.132-21.774-49.205-48.538-49.205h-134.936c-2.18 0-4.299.712-6.037 2.028l-44.396 33.619v-17.062c0-5.523-4.477-10-10-10h-101.487c-5.523 0-10 4.477-10 10v122.749c0 5.523 4.477 10 10 10h101.487c5.523 0 10-4.477 10-10v-11.679l151.123 42.643c4.986 1.489 10.108 2.228 15.217 2.228 7.802 0 15.569-1.724 22.753-5.131l176.614-83.761c12.079-5.645 20.72-16.414 23.707-29.548 3.015-13.257-.173-26.861-8.748-37.327zm-400.666 112.574h-81.487v-102.748h81.487zm389.912-79.683c-1.607 7.069-6.227 12.852-12.724 15.888l-176.665 83.785c-7.43 3.522-15.857 4.159-23.73 1.794-.054-.017-.108-.032-.162-.047l-156.631-44.197v-48.139l53.792-40.734h131.576c15.736 0 28.538 13.102 28.538 29.205v11.138h-71.329c-5.522 0-10 4.477-10 10s4.478 10 10 10h81.347.018c.008.001.012 0 .019 0 1.636-.009 3.179-.41 4.539-1.115l109.545-53.804c9.329-4.583 20.495-2.113 27.151 6.011 4.632 5.655 6.352 13.023 4.716 20.215z"/><path d="m317.742 300.421c80.749 0 146.442-65.694 146.442-146.443 0-80.748-65.693-146.442-146.442-146.442s-146.442 65.694-146.442 146.442c0 80.749 65.694 146.443 146.442 146.443zm0-272.886c69.721 0 126.442 56.722 126.442 126.442s-56.722 126.443-126.442 126.443-126.442-56.721-126.442-126.442 56.721-126.443 126.442-126.443z"/></g></g></svg>